<?xml version="1.0" standalone="no"?>
<!DOCTYPE svg PUBLIC "-//W3C//DTD SVG 20010904//EN"
 "http://www.w3.org/TR/2001/REC-SVG-20010904/DTD/svg10.dtd">
<svg version="1.0" xmlns="http://www.w3.org/2000/svg"
 width="600.000000pt" height="320.000000pt" viewBox="0 0 600.000000 320.000000"
 preserveAspectRatio="xMidYMid meet">
<metadata>
Created by potrace 1.15, written by Peter Selinger 2001-2017
</metadata>
<g transform="translate(0.000000,320.000000) scale(0.100000,-0.100000)"
fill="#000000" stroke="none">
<path d="M1910 2328 c-63 -9 -167 -19 -230 -23 -170 -9 -180 -11 -180 -41 l0
-25 119 7 119 7 20 -54 20 -54 -144 -3 -144 -3 0 -24 0 -25 155 0 155 0 0 -24
c0 -13 3 -38 6 -55 l7 -31 -177 0 -176 0 0 -30 0 -30 176 0 176 0 -4 -61 c-7
-99 -46 -118 -167 -80 l-61 19 -6 -25 c-8 -31 -1 -37 59 -53 79 -21 153 -17
182 10 29 28 45 77 45 143 l0 47 115 0 115 0 0 30 0 30 -115 0 c-103 0 -115 2
-115 18 0 9 -3 34 -6 55 l-7 37 112 0 111 0 0 25 c0 24 0 24 -117 27 l-116 3
-19 54 c-10 30 -17 55 -15 57 1 1 54 9 117 19 63 9 115 17 115 18 1 1 -1 13
-4 27 l-6 25 -115 -17z"/>
<path d="M4070 2328 c-63 -9 -167 -19 -230 -23 -170 -9 -180 -11 -180 -41 l0
-25 119 7 119 7 20 -54 20 -54 -144 -3 -144 -3 0 -24 0 -25 155 0 155 0 0 -24
c0 -13 3 -38 6 -55 l7 -31 -177 0 -176 0 0 -30 0 -30 176 0 176 0 -4 -61 c-7
-99 -46 -118 -167 -80 l-61 19 -6 -25 c-8 -31 -1 -37 59 -53 79 -21 153 -17
182 10 29 28 45 77 45 143 l0 47 115 0 115 0 0 30 0 30 -115 0 c-103 0 -115 2
-115 18 0 9 -3 34 -6 55 l-7 37 112 0 111 0 0 25 c0 24 0 24 -117 27 l-116 3
-19 54 c-10 30 -17 55 -15 57 1 1 54 9 117 19 63 9 115 17 115 18 1 1 -1 13
-4 27 l-6 25 -115 -17z"/>
<path d="M2280 2285 l0 -55 -50 0 c-49 0 -50 -1 -50 -30 0 -29 2 -30 45 -30
25 0 45 -4 45 -8 0 -19 -39 -121 -69 -180 -17 -34 -27 -62 -22 -62 5 0 16 -3
25 -6 11 -4 23 11 45 53 l30 58 1 -167 0 -168 25 0 25 0 2 193 3 192 24 -42
c26 -45 29 -47 55 -37 24 9 19 23 -34 99 l-50 70 45 3 c42 3 45 5 45 33 0 28
-2 29 -45 29 l-45 0 0 55 c0 52 -1 55 -25 55 -24 0 -25 -3 -25 -55z"/>
<path d="M3310 2295 l0 -45 -50 0 c-49 0 -50 -1 -50 -30 0 -29 1 -30 50 -30
l50 0 0 -59 c0 -137 -45 -298 -105 -377 l-25 -32 25 -16 c25 -16 25 -16 55 31
61 96 100 244 100 379 l0 75 58 -3 57 -3 -3 -165 c-2 -91 -7 -182 -13 -203
-13 -50 -45 -70 -98 -61 -40 6 -41 6 -41 -24 0 -27 3 -30 43 -36 69 -10 99 3
125 56 29 57 44 200 40 373 l-3 120 -82 3 -83 3 0 44 c0 41 -2 45 -25 45 -23
0 -25 -4 -25 -45z"/>
<path d="M2937 2314 c-4 -4 -7 -130 -7 -281 0 -266 0 -273 -20 -273 -21 0 -26
-16 -11 -38 7 -12 26 -11 112 2 57 9 116 19 132 22 l27 6 -2 281 -3 282 -111
3 c-60 1 -113 -1 -117 -4z m183 -284 l0 -60 -65 0 -65 0 0 60 0 60 65 0 65 0
0 -60z m0 -174 c0 -30 -3 -57 -7 -59 -5 -3 -34 -8 -65 -12 l-58 -7 0 66 0 66
65 0 65 0 0 -54z"/>
<path d="M2478 2093 c-5 -224 -13 -263 -64 -330 -25 -33 -25 -35 -8 -54 17
-19 18 -19 46 8 56 54 71 117 76 331 l4 192 64 0 64 0 0 -260 0 -260 25 -16
c18 -12 38 -15 67 -11 63 8 72 24 76 127 l4 90 -25 0 c-25 0 -26 -3 -33 -81
-7 -79 -7 -80 -33 -77 l-26 3 -5 270 -5 270 -111 3 -112 3 -4 -208z"/>
<path d="M940 1161 c-20 -4 -41 -11 -48 -15 -20 -12 -14 -43 12 -60 33 -21 39
-71 28 -225 -8 -111 -11 -126 -31 -142 -61 -50 33 -85 142 -53 23 7 22 36 -3
52 -17 10 -20 23 -20 92 0 113 17 108 79 -24 27 -57 53 -106 59 -109 14 -9 26
8 65 97 60 136 87 148 87 39 0 -55 -4 -71 -22 -90 -17 -19 -20 -28 -12 -41 28
-43 244 -35 244 10 0 6 -11 21 -25 34 -25 23 -25 26 -25 178 0 150 1 155 25
184 15 18 23 37 19 46 -14 37 -157 44 -186 9 -7 -9 -33 -54 -58 -102 -60 -114
-70 -114 -132 4 -27 49 -54 95 -61 102 -16 16 -91 24 -137 14z"/>
<path d="M3575 1161 c-71 -3 -136 -10 -142 -14 -19 -12 -16 -37 5 -44 50 -18
52 -27 52 -194 0 -156 0 -158 -25 -177 -57 -45 -16 -76 100 -75 125 0 168 29
110 75 -20 16 -25 28 -25 68 l0 48 68 4 c122 7 192 64 192 157 0 58 -27 104
-77 130 -50 25 -100 29 -258 22z"/>
<path d="M2100 1146 c-66 -15 -120 -42 -120 -60 0 -8 12 -21 26 -31 l26 -17
-4 -175 -3 -175 29 6 c19 4 44 -1 74 -15 98 -48 220 -16 275 72 62 100 39 222
-49 261 -45 19 -74 18 -126 -9 -15 -7 -31 -14 -35 -16 -4 -1 -7 36 -7 83 -1
97 0 96 -86 76z m167 -256 c18 -36 16 -131 -3 -158 -17 -24 -43 -29 -62 -10
-13 13 -17 179 -5 192 15 15 58 0 70 -24z"/>
<path d="M2561 1150 c-55 -13 -81 -31 -81 -57 0 -36 38 -49 102 -34 87 20 118
69 57 90 -18 6 -35 11 -38 10 -3 -1 -21 -5 -40 -9z"/>
<path d="M2880 1149 c-68 -12 -124 -38 -128 -62 -2 -10 8 -29 22 -42 26 -24
26 -26 26 -164 0 -132 -1 -141 -22 -161 -33 -31 -14 -53 55 -64 109 -16 203
22 149 60 -23 16 -23 18 -21 219 1 190 -2 227 -19 224 -4 -1 -32 -5 -62 -10z"/>
<path d="M4080 1149 c-68 -12 -124 -38 -128 -62 -2 -10 8 -29 22 -42 26 -24
26 -26 26 -164 0 -132 -1 -141 -22 -161 -33 -31 -14 -53 55 -64 109 -16 203
22 149 60 -23 16 -23 18 -21 219 1 190 -2 227 -19 224 -4 -1 -32 -5 -62 -10z"/>
<path d="M1735 1023 c-88 -20 -134 -52 -165 -114 -72 -140 55 -285 218 -248
149 33 216 152 151 269 -36 66 -133 110 -204 93z m40 -96 c20 -31 39 -129 31
-161 -10 -39 -51 -35 -72 6 -22 42 -31 143 -14 163 18 21 37 19 55 -8z"/>
<path d="M2594 1015 c-69 -15 -124 -40 -124 -57 0 -6 11 -21 25 -34 22 -20 25
-31 25 -93 0 -60 -4 -74 -25 -99 -45 -53 -14 -76 100 -76 109 0 147 25 105 69
-18 19 -20 34 -20 152 0 92 -4 133 -12 140 -9 7 -33 6 -74 -2z"/>
<path d="M3167 1016 c-85 -23 -137 -92 -137 -181 0 -88 54 -155 141 -174 104
-24 239 48 201 107 -7 10 -19 8 -55 -8 -30 -13 -56 -19 -70 -14 -31 9 -67 44
-67 66 0 16 10 18 93 18 50 0 97 4 103 8 32 21 23 85 -19 130 -47 51 -116 68
-190 48z"/>
<path d="M4382 1019 c-67 -13 -126 -50 -130 -80 -7 -58 56 -58 98 0 37 53 80
36 80 -31 0 -31 -4 -38 -20 -38 -50 0 -124 -24 -153 -50 -58 -52 -34 -139 45
-161 37 -9 49 -8 96 11 51 22 54 22 73 4 38 -34 123 -12 151 39 8 17 6 23 -12
37 -20 15 -23 29 -29 112 -4 59 -11 101 -20 112 -34 40 -108 59 -179 45z"/>
<path d="M4705 1019 c-28 -4 -55 -16 -63 -26 -11 -16 -9 -21 17 -43 32 -27
151 -266 151 -304 0 -22 -17 -46 -32 -46 -4 0 -14 16 -22 35 -8 19 -22 38 -31
41 -49 19 -99 -40 -74 -88 34 -65 139 -71 209 -11 38 32 64 84 120 237 38 104
47 121 77 139 70 41 12 91 -78 67 -42 -12 -59 -34 -40 -53 23 -23 6 -107 -22
-107 -26 0 -49 57 -42 104 l7 44 -38 11 c-44 12 -67 12 -139 0z"/>
</g>
</svg>
